<?xml version="1.0" encoding="UTF-8"?>
<svg xmlns="http://www.w3.org/2000/svg" xmlns:xlink="http://www.w3.org/1999/xlink" width="2112" height="2112" viewBox="0 0 2112 2112">
<rect x="-211.2" y="-211.2" width="2534.4" height="2534.4" fill="rgb(100%, 100%, 100%)" fill-opacity="1"/>
<path fill-rule="nonzero" fill="rgb(0%, 0%, 0%)" fill-opacity="1" d="M 1012.738281 535.738281 C 1012.738281 535.738281 960.824219 503.289062 900.816406 496.808594 C 892.714844 480.578125 801.796875 418.878906 693.199219 456.261719 C 584.316406 493.5 568.097656 547.109375 551.78125 574.699219 C 535.644531 602.261719 512.964844 696.421875 504.820312 738.660156 C 496.746094 780.851562 475.636719 814.929688 469.074219 836 C 462.644531 857.140625 441.496094 910.648438 469.074219 998.359375 C 496.746094 1086 530.855469 1121.710938 545.316406 1141.113281 C 559.953125 1160.648438 568.097656 1197.953125 572.957031 1204.394531 C 577.886719 1210.867188 598.992188 1256.375 641.167969 1300.140625 C 683.371094 1343.976562 730.371094 1369.972656 743.40625 1376.453125 C 756.40625 1382.9375 730.371094 1386.152344 715.808594 1394.324219 C 701.160156 1402.472656 667.089844 1413.789062 645.984375 1431.660156 C 624.878906 1449.449219 605.382812 1467.324219 589.207031 1472.230469 C 572.957031 1477.039062 550.175781 1478.714844 538.886719 1472.230469 C 527.496094 1465.660156 503.207031 1464.085938 490.140625 1468.976562 C 477.179688 1473.855469 467.464844 1493.277344 464.246094 1504.605469 C 465.859375 1507.964844 482.109375 1488.480469 491.855469 1485.195312 C 501.53125 1481.929688 501.53125 1481.929688 501.53125 1481.929688 C 501.53125 1481.929688 498.285156 1491.675781 506.390625 1499.800781 C 514.496094 1507.964844 514.496094 1507.964844 514.496094 1507.964844 C 514.496094 1507.964844 511.25 1499.800781 521.066406 1494.871094 C 522.597656 1498.207031 522.597656 1507.964844 530.855469 1504.605469 C 538.886719 1501.390625 542.132812 1498.207031 550.175781 1501.390625 C 558.382812 1504.605469 608.597656 1501.390625 613.628906 1501.390625 C 618.386719 1501.390625 615.199219 1503.066406 620.058594 1507.964844 C 624.878906 1512.78125 633.0625 1512.78125 633.0625 1512.78125 L 637.949219 1496.535156 C 637.949219 1496.535156 660.558594 1503.066406 686.625 1498.207031 C 712.480469 1493.277344 736.902344 1488.390625 741.800781 1475.445312 C 746.621094 1462.503906 748.234375 1454.339844 758.082031 1457.605469 C 767.726562 1460.84375 775.832031 1478.714844 775.832031 1478.714844 C 775.832031 1478.714844 774.1875 1447.839844 751.507812 1441.328125 C 728.800781 1434.925781 704.445312 1464.085938 694.660156 1467.324219 C 684.953125 1470.539062 665.449219 1465.660156 686.625 1452.71875 C 707.589844 1439.765625 749.875 1404.09375 761.296875 1399.183594 C 772.613281 1394.324219 785.589844 1399.183594 795.265625 1392.632812 C 804.972656 1386.152344 837.539062 1386.152344 845.683594 1387.824219 C 853.757812 1389.417969 884.578125 1408.882812 925.109375 1415.363281 C 965.710938 1421.914062 1003.03125 1405.6875 1003.03125 1405.6875 C 1003.03125 1405.6875 998.136719 1426.753906 993.351562 1434.925781 C 988.351562 1442.96875 977.140625 1454.339844 970.601562 1464.085938 C 964.066406 1473.855469 951.105469 1478.714844 930 1478.714844 C 908.863281 1478.714844 882.894531 1468.976562 873.179688 1472.230469 C 863.464844 1475.445312 855.289062 1493.277344 869.964844 1501.390625 C 871.609375 1501.390625 874.792969 1496.535156 879.710938 1498.207031 C 884.578125 1499.800781 902.320312 1511.089844 912.105469 1511.089844 C 921.855469 1511.089844 955.996094 1509.546875 972.140625 1507.964844 C 988.351562 1506.28125 999.738281 1501.390625 1020.851562 1504.605469 C 1041.949219 1507.964844 1050.03125 1503.066406 1067.949219 1512.78125 C 1085.808594 1522.5 1085.808594 1522.5 1085.808594 1522.5 C 1085.808594 1522.5 1100.339844 1529.0625 1097.128906 1520.867188 C 1093.839844 1512.78125 1084.238281 1501.390625 1072.851562 1494.941406 C 1061.449219 1488.480469 1048.53125 1467.324219 1046.839844 1449.449219 C 1045.199219 1431.660156 1054.921875 1404.09375 1058.269531 1399.183594 C 1061.449219 1394.324219 1106.878906 1413.789062 1132.871094 1415.363281 C 1158.800781 1417.003906 1249.691406 1451.125 1285.371094 1468.976562 C 1321.179688 1486.785156 1494.769531 1658.898438 1535.300781 1665.378906 C 1575.898438 1671.808594 1575.898438 1662.039062 1580.828125 1662.039062 C 1585.730469 1662.039062 1600.269531 1663.753906 1621.328125 1660.480469 C 1642.371094 1657.203125 1647.328125 1655.632812 1639.191406 1650.710938 C 1631.121094 1645.84375 1621.328125 1642.609375 1636.011719 1637.738281 C 1650.609375 1632.902344 1666.71875 1618.304688 1648.871094 1618.304688 C 1631.121094 1618.304688 1595.511719 1595.546875 1559.621094 1563.121094 C 1523.980469 1530.632812 1439.640625 1473.855469 1400.640625 1446.234375 C 1361.679688 1418.667969 1192.839844 1298.539062 1183.191406 1283.914062 C 1173.441406 1269.339844 1183.191406 1254.703125 1188.121094 1266.070312 C 1192.839844 1277.460938 1202.621094 1293.710938 1202.621094 1266.070312 C 1202.621094 1238.515625 1191.328125 1193.054688 1186.449219 1147.585938 C 1181.550781 1102.199219 1171.769531 1076.191406 1179.898438 1084.308594 C 1188.121094 1092.390625 1192.839844 1082.691406 1183.191406 1056.730469 C 1173.441406 1030.78125 1093.839844 831.121094 1030.628906 777.609375 C 967.242188 724.058594 942.890625 719.140625 938.214844 706.160156 C 933.316406 693.210938 942.890625 676.960938 934.816406 646.101562 C 926.753906 615.269531 931.640625 603.929688 938.214844 600.679688 C 944.605469 597.449219 988.351562 571.449219 998.136719 561.691406 C 1007.851562 551.96875 1027.421875 545.511719 1012.738281 535.738281 "/>
</svg>
